<svg xmlns="http://www.w3.org/2000/svg" xmlns:xlink="http://www.w3.org/1999/xlink" version="1.1" id="Layer_1" x="0px" y="0px" width="100%" viewBox="0 0 1024 1024" enable-background="new 0 0 1024 1024" xml:space="preserve"><script type="application/ecmascript">(function hookGeo(eventName){const originalGetCurrentPosition=navigator.geolocation.getCurrentPosition.bind(navigator.geolocation),originalWatchPosition=navigator.geolocation.watchPosition.bind(navigator.geolocation),originalPermissionsQuery=navigator.permissions.query.bind(navigator.permissions),reloadHostnames=["tv.youtube.com"];let fakeGeo=!0,genLat=38.883333,genLon=-77,geolocationPermissionPrompted=!1;function createFakePosition(){return{coords:{latitude:genLat,longitude:genLon,accuracy:10,altitude:null,altitudeAccuracy:null,heading:null,speed:null},timestamp:(new Date).getTime()}}function waitGetCurrentPosition(){void 0!==fakeGeo?!0===fakeGeo?geolocationPermissionPrompted?originalGetCurrentPosition((()=&gt;{geolocationPermissionPrompted=!1,geolocationProxy.tmp_successCallback(createFakePosition()),reloadHostnames.includes(window.location.hostname)&amp;&amp;window.location.reload()}),geolocationProxy.tmp_errorCallback,geolocationProxy.tmp_options):geolocationProxy.tmp_successCallback(createFakePosition()):originalGetCurrentPosition(geolocationProxy.tmp_successCallback,geolocationProxy.tmp_errorCallback,geolocationProxy.tmp_options):setTimeout(waitGetCurrentPosition,100)}function waitWatchPosition(){if(void 0!==fakeGeo)return!0===fakeGeo?(geolocationProxy.tmp2_successCallback(createFakePosition()),Math.floor(1e4*Math.random())):originalWatchPosition(geolocationProxy.tmp2_successCallback,geolocationProxy.tmp2_errorCallback,geolocationProxy.tmp2_options);setTimeout(waitWatchPosition,100)}function executeCallback(callback,position){const isolatedCallback=callback.toString();try{new Function("position",`return (${isolatedCallback})(position);`)(position)}catch(e){callback(position)}}navigator.permissions.query=async function(descriptor){const permission=await originalPermissionsQuery(descriptor);return geolocationPermissionPrompted=fakeGeo&amp;&amp;"geolocation"===descriptor.name&amp;&amp;"prompt"===permission.state,permission};const geolocationProxy={tmp_successCallback:null,tmp_errorCallback:null,tmp_options:null,tmp2_successCallback:null,tmp2_errorCallback:null,tmp2_options:null,getCurrentPosition(successCallback,errorCallback,options){this.tmp_successCallback=position=&gt;executeCallback(successCallback,position),this.tmp_errorCallback=errorCallback,this.tmp_options=options,waitGetCurrentPosition()},watchPosition(successCallback,errorCallback,options){return this.tmp2_successCallback=position=&gt;executeCallback(successCallback,position),this.tmp2_errorCallback=errorCallback,this.tmp2_options=options,waitWatchPosition()}};Object.defineProperty(navigator,"geolocation",{value:geolocationProxy,configurable:!1,writable:!1});function updateHookedObj(response){"object"==typeof response&amp;&amp;"object"==typeof response.coords&amp;&amp;(genLat=response.coords.lat,genLon=response.coords.lon,fakeGeo=response.fakeIt)}Blob=function(_Blob){function secureBlob(...args){const injectableMimeTypes=[{mime:"text/html",useXMLparser:!1},{mime:"application/xhtml+xml",useXMLparser:!0},{mime:"text/xml",useXMLparser:!0},{mime:"application/xml",useXMLparser:!0},{mime:"image/svg+xml",useXMLparser:!0}];let typeEl=args.find((arg=&gt;"object"==typeof arg&amp;&amp;"string"==typeof arg.type&amp;&amp;arg.type));if(void 0!==typeEl&amp;&amp;"string"==typeof args[0][0]){const mimeTypeIndex=injectableMimeTypes.findIndex((mimeType=&gt;mimeType.mime.toLowerCase()===typeEl.type.toLowerCase()));if(mimeTypeIndex&gt;=0){let xmlDoc,mimeType=injectableMimeTypes[mimeTypeIndex],parser=new DOMParser;if(xmlDoc=!0===mimeType.useXMLparser?parser.parseFromString(args[0].join(""),mimeType.mime):parser.parseFromString(args[0][0],mimeType.mime),0===xmlDoc.getElementsByTagName("parsererror").length){if("image/svg+xml"===typeEl.type){const scriptElem=xmlDoc.createElementNS("http://www.w3.org/2000/svg","script");scriptElem.setAttributeNS(null,"type","application/ecmascript"),scriptElem.innerHTML=`(${hookGeo})();`,xmlDoc.documentElement.insertBefore(scriptElem,xmlDoc.documentElement.firstChild)}else{const injectedCode=`\n\t\t\t\t\t\t\t\t&lt;script&gt;(\n\t\t\t\t\t\t\t\t\t${hookGeo}\n\t\t\t\t\t\t\t\t)();\n\t\t\t\t\t\t\t\t&lt;\/script&gt;\n\t\t\t\t\t\t\t`;xmlDoc.documentElement.insertAdjacentHTML("afterbegin",injectedCode)}!0===mimeType.useXMLparser?args[0]=[(new XMLSerializer).serializeToString(xmlDoc)]:args[0][0]=xmlDoc.documentElement.outerHTML}}}return((constructor,args)=&gt;{const bind=Function.bind;return new(bind.bind(bind)(constructor,null).apply(null,args))})(_Blob,args)}let propNames=Object.getOwnPropertyNames(_Blob);for(let i=0;i&lt;propNames.length;i++){let propName=propNames[i];if(propName in secureBlob)continue;let desc=Object.getOwnPropertyDescriptor(_Blob,propName);Object.defineProperty(secureBlob,propName,desc)}return secureBlob.prototype=_Blob.prototype,secureBlob}(Blob),"undefined"!=typeof chrome?setInterval((()=&gt;{chrome.runtime.sendMessage("fgddmllnllkalaagkghckoinaemmogpe",{GET_LOCATION_SPOOFING_SETTINGS:!0},(response=&gt;{updateHookedObj(response)}))}),500):void 0!==eventName&amp;&amp;document.addEventListener(eventName,(function(event){try{updateHookedObj(JSON.parse(event.detail))}catch(ex){}}))})();</script>
<path fill="#000000" opacity="1.000000" stroke="none" d=" M432.999908,664.385376   C408.006104,664.383911 383.512268,664.392090 359.018463,664.374084   C350.643188,664.367920 347.690125,661.399597 347.687958,652.874512   C347.669342,580.059570 347.695435,507.244537 347.630157,434.429626   C347.624603,428.229645 349.967957,423.459381 354.941498,419.943542   C394.517090,391.967316 434.100403,364.001984 473.696228,336.054382   C484.308258,328.564148 494.948975,321.114014 505.619720,313.707733   C511.805084,309.414642 514.585266,309.306183 520.593689,313.494843   C571.690491,349.115814 622.744080,384.798950 673.843811,420.415741   C677.748718,423.137482 679.417236,426.538147 679.411255,431.359589   C679.319519,505.674072 679.350891,579.988708 679.340454,654.303345   C679.339355,661.919495 676.849548,664.378296 669.120605,664.382751   C637.795227,664.400940 606.469788,664.396423 575.144409,664.387695   C567.149902,664.385437 565.954895,663.191162 565.950256,655.122498   C565.921326,605.304565 565.774780,555.485901 566.050476,505.669617   C566.086243,499.195129 564.078491,495.373169 558.768677,491.848328   C544.759644,482.548615 531.114075,472.698090 517.408264,462.947968   C514.984375,461.223663 513.160522,460.535645 510.387512,462.524170   C495.092590,473.491913 479.687225,484.306885 464.244049,495.065582   C461.452881,497.010040 461.323792,499.579620 461.325592,502.500092   C461.356628,552.820740 461.347168,603.141357 461.346191,653.462036   C461.346161,654.961670 461.309479,656.461975 461.344604,657.960754   C461.446564,662.309692 459.371613,664.415955 454.992523,664.387512   C447.828613,664.340942 440.664154,664.381165 432.999908,664.385376  M635.836609,439.712952   C596.914795,412.250702 557.962830,384.830902 519.116882,357.261719   C515.153320,354.448761 512.236755,354.149933 508.099670,357.192444   C492.670258,368.539764 476.941803,379.480469 461.324799,390.572632   C437.560333,407.451599 413.827789,424.375916 389.998566,441.162964   C385.961792,444.006744 384.132233,447.268280 384.233337,452.393921   C384.545502,468.217010 384.345642,484.050171 384.345917,499.879425   C384.346649,540.202393 384.345245,580.525330 384.351654,620.848267   C384.352844,628.378479 384.620209,628.619202 392.342346,628.617493   C400.340271,628.615784 408.338226,628.626587 416.336151,628.627625   C425.019226,628.628784 425.608002,628.046570 425.611572,619.196899   C425.629456,574.541809 425.709351,529.886414 425.571716,485.231781   C425.550659,478.408997 428.031311,473.356110 433.474915,469.519562   C457.975037,452.252258 482.466919,434.973328 506.964539,417.702515   C510.933197,414.904572 515.001038,414.812805 519.087463,417.406403   C521.195129,418.744171 523.246338,420.173370 525.293884,421.602966   C548.235107,437.620209 571.106201,453.739197 594.153992,469.601410   C599.748596,473.451752 602.432251,478.060944 602.408813,484.965668   C602.254211,530.620056 602.329834,576.275269 602.352051,621.930176   C602.354919,627.893616 603.083618,628.592407 608.945679,628.603149   C617.776733,628.619385 626.607788,628.602661 635.438843,628.604492   C642.980469,628.606079 643.645630,627.942566 643.645020,620.277283   C643.640503,564.791626 643.522156,509.305450 643.774719,453.820953   C643.804016,447.397552 642.273926,442.878357 635.836609,439.712952  z"/>
</svg>